# xmcd
#
# Track frame offsets:
#  150
#  13250
#  25223
#  36645
#  49400
#  59370
#  71347
#  81840
#  90905
#  103925
#  115745
#  127963
#  142055
#  152158
#  163115
#  172988
#  183985
#  195735
#  206715
#  217753
#  229615
#  238930
#  251600
#  264435
#  276143
#
# Disc length: 3831 seconds
#
# Revision: 0
# Processed by: cddbd v1.5.1PL2 Copyright (c) Steve Scherf et al.
# Submitted via: Collectorz.com_Music_Collector 6.9
#
DISCID=680ef519
DTITLE=Various Artist - Street Corner Essentials - Disc 2 - The Rare Sides
DYEAR=2001
DGENRE=Doo-Wop
TTITLE0=Blue Jays, The - White Cliffs Of Dover
TTITLE1=Eagles, The - Tryin' To Get To You
TTITLE2=Barons, The - My Baby's Gone
TTITLE3=Five Notes, The - Show Me The Way
TTITLE4=Four Tops, The - Woke Up This Morning
TTITLE5=Castor, Jimmy and The Juniors - I Promise To Remember
TTITLE6=Sentimentals, The - I Want To Love You
TTITLE7=Orbits, The - Sugar Mama
TTITLE8=Dream Kings, The - M.T.Y.L.T.T
TTITLE9=Fox, Norman and The Rob Roys - Dance, Girl, Dance
TTITLE10=Tornados, The - Tht's The Way I Feel
TTITLE11=Quintones, The - Ding Dong
TTITLE12=Bay Bops, The - Joanie
TTITLE13=Scott, Lee and The Windsors - My Gloria
TTITLE14=Hi-Fives, The - Dorothy
TTITLE15=Five Satins, The - Your Memory
TTITLE16=Explorers, The - Don't Be A Fool
TTITLE17=Dubs, The - If I Only Had Magic
TTITLE18=Emotions, The - Echo
TTITLE19=Dubs, The - Two Hearts Are Better Than One
TTITLE20=Standards, The - My Heart Belongs To Only You
TTITLE21=Crests, The - You Blew Out The Candles
TTITLE22=Chateaus, The - Honest I Will
TTITLE23=Four-Evers, The - Be My Girl (Please Be Mine)
TTITLE24=Ocapellos, The - The Stars
EXTD=
EXTT0=
EXTT1=
EXTT2=
EXTT3=
EXTT4=
EXTT5=
EXTT6=
EXTT7=
EXTT8=
EXTT9=
EXTT10=
EXTT11=
EXTT12=
EXTT13=
EXTT14=
EXTT15=
EXTT16=
EXTT17=
EXTT18=
EXTT19=
EXTT20=
EXTT21=
EXTT22=
EXTT23=
EXTT24=
PLAYORDER=
